# xmcd CD database file
#
# Track frame offsets:
#	150
#	10655
#	27815
#	39810
#	51278
#	71202
#	95961
#	113019
#	124187
#	143673
#	158858
#	175165
#	192333
#	204924
#	241009
#	258204
#	306012
#	323903
#
# Disc length: 4485 seconds
#
# Revision: 0
# Processed by: cddbd v1.5.2PL0 Copyright (c) Steve Scherf et al.
# Submitted via: CDex 1.51
#
DISCID=ec118312
DTITLE=Quincy Jones - Complete Recordings
DYEAR=2013
DGENRE=Jazz
TTITLE0=Main Title
TTITLE1=The Boy In The Tre
TTITLE2=Crucifixion March
TTITLE3=Fulla' Fire
TTITLE4=The Quintessence
TTITLE5=Robot Portrait
TTITLE6=Little Karen
TTITLE7=Straight, No Chaser
TTITLE8=For Lenna and Lennie
TTITLE9=Hard Sock Dance
TTITLE10=Invitation
TTITLE11=The Twitch
TTITLE12=Alright, Okay, You Win
TTITLE13=I'm Falling For You, Fool That I Am, EverythingI have is for You
TTITLE14=In the Still of the Night
TTITLE15=Don't Get Aroun Much Anymore, I'm Just A Lucky So and So, Caravan, Sophisticated Lady
TTITLE16=Work Song
TTITLE17=Ma(She's Making Eyes At Me)
EXTD=YEAR: 2013
EXTT0=
EXTT1=
EXTT2=
EXTT3=
EXTT4=
EXTT5=
EXTT6=
EXTT7=
EXTT8=
EXTT9=
EXTT10=
EXTT11=
EXTT12=
EXTT13=
EXTT14=
EXTT15=
EXTT16=
EXTT17=
PLAYORDER=
